<svg width="694" height="618" viewBox="0 0 694 618" fill="none" xmlns="http://www.w3.org/2000/svg">
<g clip-path="url(#clip0_0_132)">
<path d="M334.919 115.786L182.819 533.833L640.047 464.313L334.919 115.786Z" fill="#5E5E5E"/>
<ellipse cx="426.272" cy="312.759" rx="131.233" ry="131.161" fill="#C2F23C"/>
<path fill-rule="evenodd" clip-rule="evenodd" d="M379.437 596.865C503.904 596.865 604.805 496.019 604.805 371.62C604.805 247.22 503.904 146.375 379.437 146.375C254.969 146.375 154.068 247.22 154.068 371.62C154.068 496.019 254.969 596.865 379.437 596.865ZM379.437 599.646C505.44 599.646 607.587 497.555 607.587 371.62C607.587 245.685 505.44 143.594 379.437 143.594C253.433 143.594 151.286 245.685 151.286 371.62C151.286 497.555 253.433 599.646 379.437 599.646Z" fill="#C2F23C"/>
<path fill-rule="evenodd" clip-rule="evenodd" d="M68.7439 141.74C105.111 141.74 134.592 112.275 134.592 75.9278C134.592 39.5807 105.111 10.1155 68.7439 10.1155C32.3769 10.1155 2.8956 39.5807 2.8956 75.9278C2.8956 112.275 32.3769 141.74 68.7439 141.74ZM68.7439 144.521C106.648 144.521 137.374 113.811 137.374 75.9278C137.374 38.0449 106.648 7.33472 68.7439 7.33472C30.8403 7.33472 0.113281 38.0449 0.113281 75.9278C0.113281 113.811 30.8403 144.521 68.7439 144.521Z" fill="#C2F23C"/>
<path fill-rule="evenodd" clip-rule="evenodd" d="M634.483 165.84C640.117 165.84 644.685 161.275 644.685 155.644C644.685 150.013 640.117 145.448 634.483 145.448C628.848 145.448 624.281 150.013 624.281 155.644C624.281 161.275 628.848 165.84 634.483 165.84ZM634.483 168.621C641.654 168.621 647.467 162.811 647.467 155.644C647.467 148.477 641.654 142.667 634.483 142.667C627.312 142.667 621.499 148.477 621.499 155.644C621.499 162.811 627.312 168.621 634.483 168.621Z" fill="#C2F23C"/>
<path fill-rule="evenodd" clip-rule="evenodd" d="M90.5377 518.117L55.8013 536.143L73.837 570.86L108.573 552.834L90.5377 518.117ZM52.0499 534.956L72.6498 574.609L112.325 554.021L91.7249 514.367L52.0499 534.956Z" fill="#C2F23C"/>
<path fill-rule="evenodd" clip-rule="evenodd" d="M541.592 51.0899L532.653 62.8288L544.399 71.7621L553.337 60.0232L541.592 51.0899ZM528.754 63.3577L544.928 75.659L557.236 59.4943L541.062 47.1929L528.754 63.3577Z" fill="#C2F23C"/>
<path fill-rule="evenodd" clip-rule="evenodd" d="M268.297 269.795L258.079 470.984L459.379 481.196L469.596 280.007L268.297 269.795ZM255.159 473.62L462.016 484.114L472.516 277.371L265.659 266.877L255.159 473.62Z" fill="#C2F23C"/>
<path fill-rule="evenodd" clip-rule="evenodd" d="M145.808 24.7539L112.277 3.47064L110.6 43.1351L145.808 24.7539ZM140.248 24.5192L114.853 8.40019L113.584 38.4403L140.248 24.5192Z" fill="#C2F23C"/>
<path fill-rule="evenodd" clip-rule="evenodd" d="M634.053 438.37L307.115 111.61L187.448 557.972L634.053 438.37ZM628.678 436.93L308.555 116.983L191.382 554.039L628.678 436.93Z" fill="#C2F23C"/>
</g>
<defs>
<clipPath id="clip0_0_132">
<rect width="694" height="618" fill="white"/>
</clipPath>
</defs>
</svg>
