<svg width="445" height="240" viewBox="0 0 445 240" fill="none" xmlns="http://www.w3.org/2000/svg">
<g clip-path="url(#clip0_0_182)">
<rect width="445" height="240" fill="#C2F23C"/>
<path fill-rule="evenodd" clip-rule="evenodd" d="M405.548 254.018L215.72 50.6985L488.661 3.23993e-05L405.548 254.018ZM404.276 248.259L484.238 3.87288L221.646 52.6489L404.276 248.259Z" fill="#DAFF72"/>
<path fill-rule="evenodd" clip-rule="evenodd" d="M293.642 -97.1863C163.592 -62.3228 86.4159 71.4199 121.264 201.537C156.112 331.653 289.788 408.871 419.838 374.008C549.888 339.144 627.064 205.402 592.216 75.285C557.368 -54.8317 423.692 -132.05 293.642 -97.1863ZM292.863 -100.095C161.208 -64.801 83.0785 70.5929 118.357 202.316C153.635 334.039 288.961 412.21 420.617 376.916C552.272 341.623 630.401 206.229 595.123 74.5057C559.845 -57.2174 424.518 -135.389 292.863 -100.095Z" fill="#DAFF72"/>
</g>
<defs>
<clipPath id="clip0_0_182">
<rect width="445" height="240" fill="white"/>
</clipPath>
</defs>
</svg>
