<svg width="445" height="240" viewBox="0 0 445 240" fill="none" xmlns="http://www.w3.org/2000/svg">
<g clip-path="url(#clip0_0_159)">
<rect width="445" height="240" fill="#C2F23C"/>
<path fill-rule="evenodd" clip-rule="evenodd" d="M220.59 -110.898L466.531 170.187L97.9935 226.255L220.59 -110.898ZM221.675 -105.102L102.541 222.529L460.67 168.045L221.675 -105.102Z" fill="#DAFF72"/>
<path fill-rule="evenodd" clip-rule="evenodd" d="M73.6376 108.896C96.9007 108.896 115.759 90.0373 115.759 66.7735C115.759 43.5096 96.9007 24.6505 73.6376 24.6505C50.3745 24.6505 31.5161 43.5096 31.5161 66.7735C31.5161 90.0373 50.3745 108.896 73.6376 108.896ZM113.258 66.7735C113.258 88.6558 95.5191 106.395 73.6376 106.395C51.7561 106.395 34.0176 88.6558 34.0176 66.7735C34.0176 44.8911 51.7561 27.152 73.6376 27.152C95.5191 27.152 113.258 44.8911 113.258 66.7735Z" fill="#DAFF72"/>
</g>
<defs>
<clipPath id="clip0_0_159">
<rect width="445" height="240" fill="white"/>
</clipPath>
</defs>
</svg>
