<svg width="445" height="240" viewBox="0 0 445 240" fill="none" xmlns="http://www.w3.org/2000/svg">
<g clip-path="url(#clip0_0_164)">
<rect width="445" height="240" fill="#C2F23C"/>
<path fill-rule="evenodd" clip-rule="evenodd" d="M401.889 43.6891L348.383 74.5804L348.383 12.7978L401.889 43.6891ZM395.889 43.6891L351.383 17.9939L351.383 69.3842L395.889 43.6891Z" fill="#DAFF72"/>
<path fill-rule="evenodd" clip-rule="evenodd" d="M173.924 449.5C290.732 449.5 385.424 354.732 385.424 237.83C385.424 120.928 290.732 26.1595 173.924 26.1595C57.1152 26.1595 -37.5762 120.928 -37.5762 237.83C-37.5762 354.732 57.1152 449.5 173.924 449.5ZM381.851 237.83C381.851 352.758 288.758 445.925 173.924 445.925C59.0894 445.925 -34.003 352.758 -34.003 237.83C-34.003 122.902 59.0894 29.7347 173.924 29.7347C288.758 29.7347 381.851 122.902 381.851 237.83Z" fill="#DAFF72"/>
</g>
<defs>
<clipPath id="clip0_0_164">
<rect width="445" height="240" fill="white"/>
</clipPath>
</defs>
</svg>
