<svg width="445" height="240" viewBox="0 0 445 240" fill="none" xmlns="http://www.w3.org/2000/svg">
<g clip-path="url(#clip0_0_177)">
<rect width="445" height="240" fill="#C2F23C"/>
<path fill-rule="evenodd" clip-rule="evenodd" d="M303.352 326.756C392.653 326.756 465.046 254.363 465.046 165.062C465.046 75.7609 392.653 3.36798 303.352 3.36798C214.051 3.36798 141.658 75.7609 141.658 165.062C141.658 254.363 214.051 326.756 303.352 326.756ZM303.352 329.756C394.31 329.756 468.046 256.02 468.046 165.062C468.046 74.1041 394.31 0.367981 303.352 0.367981C212.394 0.367981 138.658 74.1041 138.658 165.062C138.658 256.02 212.394 329.756 303.352 329.756Z" fill="#DAFF72"/>
<path fill-rule="evenodd" clip-rule="evenodd" d="M129.035 103.602L48.6979 86.694L103.509 25.5745L129.035 103.602ZM124.568 99.5962L102.273 31.4459L54.4005 84.8285L124.568 99.5962Z" fill="#DAFF72"/>
</g>
<defs>
<clipPath id="clip0_0_177">
<rect width="445" height="240" fill="white"/>
</clipPath>
</defs>
</svg>
