<svg width="300" height="200" viewBox="0 0 300 200" fill="none" xmlns="http://www.w3.org/2000/svg">
<g clip-path="url(#clip0_0_63)">
<ellipse cx="175.07" cy="49.4177" rx="45.8998" ry="45.9436" transform="rotate(-90 175.07 49.4177)" fill="#5E5E5E"/>
<ellipse cx="76.1384" cy="148.858" rx="45.8998" ry="45.9436" transform="rotate(-90 76.1384 148.858)" fill="#5E5E5E"/>
<path fill-rule="evenodd" clip-rule="evenodd" d="M273.371 197.947C245.901 197.947 223.603 175.67 223.603 148.227C223.603 120.784 245.873 98.5065 273.371 98.5065L274.003 98.5065L274.003 197.947L273.371 197.947ZM272.738 196.68L272.738 99.7738C246.231 100.112 224.867 121.692 224.867 148.227C224.867 174.761 246.258 196.341 272.738 196.68Z" fill="#A6ABB3"/>
<path fill-rule="evenodd" clip-rule="evenodd" d="M273.371 99.7411C245.902 99.7411 223.603 77.4925 223.603 50.0207C223.603 22.5779 245.873 0.300385 273.371 0.300385L274.003 0.300385L274.003 99.7411L273.371 99.7411ZM272.738 98.4738L272.738 1.56771C246.231 1.90599 224.867 23.4857 224.867 50.0207C224.867 76.5833 246.258 98.1356 272.738 98.4738Z" fill="#A6ABB3"/>
<path fill-rule="evenodd" clip-rule="evenodd" d="M174.438 99.7411L174.438 0.300385L175.07 0.300385C202.569 0.300385 224.838 22.5779 224.838 50.0207C224.838 77.4925 202.54 99.7411 175.07 99.7411L174.438 99.7411ZM175.703 98.4738C202.183 98.1356 223.574 76.5833 223.574 50.0207C223.574 23.4857 202.21 1.90599 175.703 1.56771L175.703 98.4738Z" fill="#A6ABB3"/>
<path fill-rule="evenodd" clip-rule="evenodd" d="M174.438 197.947L174.438 98.5065L175.07 98.5065C202.569 98.5065 224.838 120.784 224.838 148.227C224.838 175.67 202.54 197.947 175.07 197.947L174.438 197.947ZM175.703 196.68C202.183 196.341 223.574 174.761 223.574 148.227C223.574 121.692 202.21 100.112 175.703 99.7738L175.703 196.68Z" fill="#A6ABB3"/>
<path fill-rule="evenodd" clip-rule="evenodd" d="M76.7708 99.7411C49.3017 99.7411 27.0029 77.4925 27.0029 50.0207C27.0029 22.5779 49.2727 0.300385 76.7708 0.300385L77.4031 0.300385L77.4031 99.7411L76.7708 99.7411ZM76.1386 98.4738L76.1386 1.56771C49.6311 1.90599 28.2674 23.4857 28.2674 50.0207C28.2674 76.5833 49.6583 98.1356 76.1386 98.4738Z" fill="#A6ABB3"/>
<path fill-rule="evenodd" clip-rule="evenodd" d="M76.7708 197.947C49.3015 197.947 27.0029 175.67 27.0029 148.227C27.0029 120.784 49.2727 98.5065 76.7708 98.5065L77.4031 98.5065L77.4031 197.947L76.7708 197.947ZM76.1386 196.68L76.1386 99.7738C49.6311 100.112 28.2674 121.692 28.2674 148.227C28.2674 174.761 49.6585 196.341 76.1386 196.68Z" fill="#A6ABB3"/>
<path fill-rule="evenodd" clip-rule="evenodd" d="M175.071 197.947C147.602 197.947 125.303 175.699 125.303 148.227L125.303 147.595L175.703 147.595L175.703 197.947L175.071 197.947ZM174.438 196.68L174.438 148.858L126.571 148.858C126.907 175.13 148.168 196.344 174.438 196.68Z" fill="#A6ABB3"/>
<path fill-rule="evenodd" clip-rule="evenodd" d="M125.303 50.681L125.303 50.0494C125.303 22.5775 147.602 0.328972 175.071 0.328972L175.703 0.328972L175.703 50.681L125.303 50.681ZM126.571 49.4177L174.438 49.4177L174.438 1.59631C148.168 1.93181 126.907 23.1459 126.571 49.4177Z" fill="#A6ABB3"/>
<path fill-rule="evenodd" clip-rule="evenodd" d="M76.1671 197.947L76.1671 147.595L126.567 147.595L126.567 148.227C126.567 175.699 104.268 197.947 76.7994 197.947L76.1671 197.947ZM77.4316 196.68C103.702 196.344 124.963 175.13 125.299 148.858L77.4316 148.858L77.4316 196.68Z" fill="#A6ABB3"/>
<path fill-rule="evenodd" clip-rule="evenodd" d="M76.1383 50.681L76.1383 0.328972L76.7706 0.328972C104.24 0.328972 126.538 22.5775 126.538 50.0494L126.538 50.681L76.1383 50.681ZM77.4028 49.4177L125.27 49.4177C124.934 23.1459 103.673 1.93181 77.4028 1.59631L77.4028 49.4177Z" fill="#A6ABB3"/>
<path fill-rule="evenodd" clip-rule="evenodd" d="M76.92 2.28882e-05C104.738 2.32199e-05 127.32 22.5311 127.32 50.3521L124.791 50.3521C124.791 23.9275 103.342 2.52662 76.92 2.52662L76.92 2.28882e-05Z" fill="#C2F23C"/>
<path fill-rule="evenodd" clip-rule="evenodd" d="M125.303 97.243C153.121 97.243 175.703 119.774 175.703 147.595L173.174 147.595C173.174 121.17 151.725 99.7696 125.303 99.7696L125.303 97.243Z" fill="#C2F23C"/>
<path fill-rule="evenodd" clip-rule="evenodd" d="M274.003 199.21C246.185 199.21 223.603 176.679 223.603 148.858L226.132 148.858C226.132 175.283 247.581 196.684 274.003 196.684L274.003 199.21Z" fill="#C2F23C"/>
<path fill-rule="evenodd" clip-rule="evenodd" d="M27.6351 49.4177L76.7708 49.4177L76.7708 50.681L27.6351 50.681L27.6351 49.4177Z" fill="#A6ABB3"/>
<path fill-rule="evenodd" clip-rule="evenodd" d="M27.6351 147.595L76.7708 147.595L76.7708 148.858L27.6351 148.858L27.6351 147.595Z" fill="#A6ABB3"/>
<path fill-rule="evenodd" clip-rule="evenodd" d="M175.071 49.4177L273.37 49.4177L273.37 50.681L175.071 50.681L175.071 49.4177Z" fill="#A6ABB3"/>
<path fill-rule="evenodd" clip-rule="evenodd" d="M175.071 147.595L273.37 147.595L273.37 148.858L175.071 148.858L175.071 147.595Z" fill="#A6ABB3"/>
</g>
<defs>
<clipPath id="clip0_0_63">
<rect width="200" height="300" fill="white" transform="translate(0 200) rotate(-90)"/>
</clipPath>
</defs>
</svg>
