<svg width="300" height="200" viewBox="0 0 300 200" fill="none" xmlns="http://www.w3.org/2000/svg">
<g clip-path="url(#clip0_0_89)">
<ellipse cx="100.238" cy="149.144" rx="49.0787" ry="48.8942" fill="#5E5E5E"/>
<ellipse cx="199.362" cy="50.1251" rx="49.0787" ry="48.8942" fill="#5E5E5E"/>
<path fill-rule="evenodd" clip-rule="evenodd" d="M0.630981 0H101.259V0.749378C101.259 28.4254 78.7257 50.8744 50.9452 50.8744C23.1647 50.8744 0.630981 28.4254 0.630981 0.749378V0ZM2.14108 1.49876C2.54333 28.0018 24.2467 49.3757 50.9452 49.3757C77.6436 49.3757 99.3471 28.0018 99.7493 1.49876H2.14108Z" fill="#A6ABB3"/>
<path fill-rule="evenodd" clip-rule="evenodd" d="M0.630493 148.876C0.630493 121.163 23.1646 98.7512 50.9447 98.7512H51.6969V199.001H50.9447C23.1646 199.001 0.630493 176.59 0.630493 148.876ZM50.1925 100.256C23.5891 100.656 2.1349 122.242 2.1349 148.876C2.1349 175.511 23.5891 197.097 50.1925 197.497V100.256Z" fill="#A6ABB3"/>
<path fill-rule="evenodd" clip-rule="evenodd" d="M248.44 148.876C248.44 121.163 270.975 98.7512 298.755 98.7512H299.507V199.001H298.755C270.975 199.001 248.44 176.59 248.44 148.876ZM298.002 100.256C271.399 100.656 249.945 122.242 249.945 148.876C249.945 175.511 271.399 197.097 298.002 197.497V100.256Z" fill="#A6ABB3"/>
<path fill-rule="evenodd" clip-rule="evenodd" d="M99.7544 98.7512H100.507C128.287 98.7512 150.821 121.2 150.821 148.876C150.821 176.552 128.287 199.001 100.507 199.001H99.7544V98.7512ZM101.259 100.256V197.497C127.862 197.096 149.316 175.474 149.316 148.876C149.316 122.278 127.862 100.656 101.259 100.256Z" fill="#A6ABB3"/>
<path fill-rule="evenodd" clip-rule="evenodd" d="M149.317 100C177.135 100 199.717 122.531 199.717 150.352L197.188 150.352C197.188 123.927 175.739 102.527 149.317 102.527L149.317 100Z" fill="#C2F23C"/>
<path fill-rule="evenodd" clip-rule="evenodd" d="M249.279 100C221.461 100 198.879 122.531 198.879 150.352L201.408 150.352C201.408 123.927 222.856 102.527 249.279 102.527L249.279 100Z" fill="#C2F23C"/>
<path fill-rule="evenodd" clip-rule="evenodd" d="M199.693 148.846C199.693 176.664 177.162 199.246 149.341 199.246V196.717C175.765 196.717 197.166 175.268 197.166 148.846H199.693Z" fill="#C2F23C"/>
<path fill-rule="evenodd" clip-rule="evenodd" d="M198.903 148.846C198.903 176.664 221.434 199.246 249.255 199.246V196.717C222.83 196.717 201.429 175.268 201.429 148.846H198.903Z" fill="#C2F23C"/>
<path fill-rule="evenodd" clip-rule="evenodd" d="M0.807274 101.275C0.807271 73.4566 23.3384 50.8744 51.1593 50.8744L51.1593 53.4034C24.7347 53.4034 3.33386 74.8523 3.33387 101.275L0.807274 101.275Z" fill="#C2F23C"/>
<path fill-rule="evenodd" clip-rule="evenodd" d="M99.7544 49.3756H200.383V50.125C200.383 77.801 177.849 100.25 150.069 100.25C122.288 100.25 99.7544 77.801 99.7544 50.125V49.3756ZM101.264 50.8744C101.667 77.3774 123.37 98.7513 150.069 98.7513C176.767 98.7513 198.47 77.3774 198.873 50.8744H101.264Z" fill="#A6ABB3"/>
<path fill-rule="evenodd" clip-rule="evenodd" d="M198.879 0H199.631C227.411 0 249.945 22.4116 249.945 50.1251C249.945 77.8385 227.411 100.25 199.631 100.25H198.879V0ZM200.383 1.50441V98.7457C226.986 98.3456 248.441 76.7595 248.441 50.1251C248.441 23.4906 226.986 1.90447 200.383 1.50441Z" fill="#A6ABB3"/>
<path fill-rule="evenodd" clip-rule="evenodd" d="M50.1924 148.127H101.259V148.876C101.259 176.552 78.7251 199.001 50.9446 199.001H50.1924V148.127ZM51.6969 149.626V197.497C78.0496 197.1 99.3503 175.879 99.7488 149.626H51.6969Z" fill="#A6ABB3"/>
<path fill-rule="evenodd" clip-rule="evenodd" d="M99.7544 0H100.507C128.287 0 150.821 22.449 150.821 50.125V50.8744H99.7544V0ZM101.259 1.50442V49.3757H149.311C148.912 23.122 127.612 1.90139 101.259 1.50442Z" fill="#A6ABB3"/>
<path fill-rule="evenodd" clip-rule="evenodd" d="M150.827 49.3757H198.879V1.50442C172.526 1.90139 151.225 23.122 150.827 49.3757ZM149.317 50.125C149.317 22.449 171.85 0 199.631 0H200.383V50.8744H149.317V50.125Z" fill="#A6ABB3"/>
<path fill-rule="evenodd" clip-rule="evenodd" d="M248.44 0H299.507V0.749378C299.507 28.4254 276.973 50.8744 249.193 50.8744H248.44V0ZM249.945 1.49876V49.37C276.298 48.973 297.598 27.7524 297.997 1.49876H249.945Z" fill="#A6ABB3"/>
<path fill-rule="evenodd" clip-rule="evenodd" d="M248.44 49.3756H299.507V100.25H298.755C270.974 100.25 248.44 77.801 248.44 50.125V49.3756ZM249.951 50.8744C250.349 77.128 271.65 98.3486 298.002 98.7456V50.8744H249.951Z" fill="#A6ABB3"/>
</g>
<defs>
<clipPath id="clip0_0_89">
<rect width="300" height="200" fill="white"/>
</clipPath>
</defs>
</svg>
